{
  "accessors": [
    {
      "bufferView": 2,
      "componentType": 5126,
      "count": 12,
      "max": [
        96.77633666992188,
        28.515466690063477,
        24.4844970703125
      ],
      "min": [
        -96.77633666992188,
        -45.25899124145508,
        -132.18096923828125
      ],
      "type": "VEC3"
    },
    {
      "bufferView": 2,
      "byteOffset": 144,
      "componentType": 5126,
      "count": 12,
      "max": [
        0.4831734597682953,
        0.9059424996376038,
        0.12841381132602692
      ],
      "min": [
        -0.4831734597682953,
        0.7776867747306824,
        -0.402177631855011
      ],
      "type": "VEC3"
    },
    {
      "bufferView": 1,
      "componentType": 5126,
      "count": 12,
      "max": [
        1.0,
        1.0
      ],
      "min": [
        0.0,
        0.0
      ],
      "type": "VEC2"
    },
    {
      "bufferView": 0,
      "componentType": 5125,
      "count": 12,
      "type": "SCALAR"
    },
    {
      "bufferView": 2,
      "byteOffset": 288,
      "componentType": 5126,
      "count": 382,
      "max": [
        217.21060180664063,
        78.11982727050781,
        682.8558349609375
      ],
      "min": [
        -217.21060180664063,
        -341.8661193847656,
        -22.19464683532715
      ],
      "type": "VEC3"
    },
    {
      "bufferView": 2,
      "byteOffset": 4872,
      "componentType": 5126,
      "count": 382,
      "max": [
        0.9998554587364197,
        1.0,
        0.6827660799026489
      ],
      "min": [
        -0.9998554587364197,
        -0.7414745092391968,
        -0.94866544008255
      ],
      "type": "VEC3"
    },
    {
      "bufferView": 1,
      "byteOffset": 96,
      "componentType": 5126,
      "count": 382,
      "max": [
        1.0,
        0.0
      ],
      "min": [
        0.0,
        0.0
      ],
      "type": "VEC2"
    },
    {
      "bufferView": 0,
      "byteOffset": 48,
      "componentType": 5125,
      "count": 468,
      "type": "SCALAR"
    },
    {
      "bufferView": 2,
      "byteOffset": 9456,
      "componentType": 5126,
      "count": 78,
      "max": [
        138.58509826660156,
        78.11982727050781,
        385.8547058105469
      ],
      "min": [
        -138.58509826660156,
        -261.5799560546875,
        -22.19464683532715
      ],
      "type": "VEC3"
    },
    {
      "bufferView": 2,
      "byteOffset": 10392,
      "componentType": 5126,
      "count": 78,
      "max": [
        0.9437375068664551,
        0.999994158744812,
        0.6126415729522705
      ],
      "min": [
        -0.9437375068664551,
        0.3115590810775757,
        -0.7337091565132141
      ],
      "type": "VEC3"
    },
    {
      "bufferView": 1,
      "byteOffset": 3152,
      "componentType": 5126,
      "count": 78,
      "max": [
        1.0,
        0.0
      ],
      "min": [
        0.0,
        0.0
      ],
      "type": "VEC2"
    },
    {
      "bufferView": 0,
      "byteOffset": 1920,
      "componentType": 5125,
      "count": 78,
      "type": "SCALAR"
    },
    {
      "bufferView": 2,
      "byteOffset": 11328,
      "componentType": 5126,
      "count": 252,
      "max": [
        115.11991119384766,
        -341.4719543457031,
        354.82061767578125
      ],
      "min": [
        -115.11991119384766,
        -487.8880615234375,
        232.26063537597656
      ],
      "type": "VEC3"
    },
    {
      "bufferView": 2,
      "byteOffset": 14352,
      "componentType": 5126,
      "count": 252,
      "max": [
        0.9644347429275513,
        0.9786131978034973,
        0.9294159412384033
      ],
      "min": [
        -0.964434802532196,
        -0.991961658000946,
        -0.928094744682312
      ],
      "type": "VEC3"
    },
    {
      "bufferView": 1,
      "byteOffset": 3776,
      "componentType": 5126,
      "count": 252,
      "max": [
        0.8725837469100952,
        0.7984413504600525
      ],
      "min": [
        0.0,
        0.0
      ],
      "type": "VEC2"
    },
    {
      "bufferView": 0,
      "byteOffset": 2232,
      "componentType": 5125,
      "count": 348,
      "type": "SCALAR"
    },
    {
      "bufferView": 2,
      "byteOffset": 17376,
      "componentType": 5126,
      "count": 18,
      "max": [
        39.249385833740234,
        394.84814453125,
        858.2141723632813
      ],
      "min": [
        -64.71513366699219,
        -263.0700988769531,
        383.1346130371094
      ],
      "type": "VEC3"
    },
    {
      "bufferView": 2,
      "byteOffset": 17592,
      "componentType": 5126,
      "count": 18,
      "max": [
        0.6213455200195313,
        0.7403491139411926,
        0.29208704829216003
      ],
      "min": [
        -1.0,
        -0.5200376510620117,
        -0.6703408360481262
      ],
      "type": "VEC3"
    },
    {
      "bufferView": 1,
      "byteOffset": 5792,
      "componentType": 5126,
      "count": 18,
      "max": [
        1.0,
        1.0
      ],
      "min": [
        0.0,
        0.0
      ],
      "type": "VEC2"
    },
    {
      "bufferView": 0,
      "byteOffset": 3624,
      "componentType": 5125,
      "count": 18,
      "type": "SCALAR"
    },
    {
      "bufferView": 2,
      "byteOffset": 17808,
      "componentType": 5126,
      "count": 228,
      "max": [
        447.06719970703125,
        1180.6015625,
        205.10385131835938
      ],
      "min": [
        -396.5094909667969,
        -836.4904174804688,
        -493.68402099609375
      ],
      "type": "VEC3"
    },
    {
      "bufferView": 2,
      "byteOffset": 20544,
      "componentType": 5126,
      "count": 228,
      "max": [
        0.999748945236206,
        0.9984586834907532,
        0.9092002511024475
      ],
      "min": [
        -0.9997484683990479,
        -0.8452273607254028,
        -0.9047486782073975
      ],
      "type": "VEC3"
    },
    {
      "bufferView": 1,
      "byteOffset": 5936,
      "componentType": 5126,
      "count": 228,
      "max": [
        0.0,
        0.0
      ],
      "min": [
        0.0,
        0.0
      ],
      "type": "VEC2"
    },
    {
      "bufferView": 0,
      "byteOffset": 3696,
      "componentType": 5125,
      "count": 348,
      "type": "SCALAR"
    }
  ],
  "asset": {
    "extras": {
      "author": "Kyyy_24 (https://sketchfab.com/luckyardrianto27)",
      "license": "CC-BY-4.0 (http://creativecommons.org/licenses/by/4.0/)",
      "source": "https://sketchfab.com/3d-models/low-poly-bird-7a0d16af3b9749018f32f698ecb0169d",
      "title": "low poly bird"
    },
    "generator": "Sketchfab-14.32.0",
    "version": "2.0"
  },
  "bufferViews": [
    {
      "buffer": 0,
      "byteLength": 5088,
      "name": "floatBufferViews",
      "target": 34963
    },
    {
      "buffer": 0,
      "byteLength": 7760,
      "byteOffset": 5088,
      "byteStride": 8,
      "name": "floatBufferViews",
      "target": 34962
    },
    {
      "buffer": 0,
      "byteLength": 23280,
      "byteOffset": 12848,
      "byteStride": 12,
      "name": "floatBufferViews",
      "target": 34962
    }
  ],
  "buffers": [
    {
      "byteLength": 36128,
      "uri": "scene.bin"
    }
  ],
  "materials": [
    {
      "doubleSided": true,
      "name": "paruh",
      "pbrMetallicRoughness": {
        "baseColorFactor": [
          0.964686,
          0.417885,
          0.0528607,
          1.0
        ],
        "metallicFactor": 0.0,
        "roughnessFactor": 0.8756197760037044
      }
    },
    {
      "doubleSided": true,
      "name": "Body",
      "pbrMetallicRoughness": {
        "baseColorFactor": [
          0.250158,
          0.0684782,
          0.0221739,
          1.0
        ],
        "metallicFactor": 0.0,
        "roughnessFactor": 0.9745840564568917
      }
    },
    {
      "doubleSided": true,
      "name": "Body_1",
      "pbrMetallicRoughness": {
        "baseColorFactor": [
          0.768151,
          0.48515,
          0.283149,
          1.0
        ],
        "metallicFactor": 0.0,
        "roughnessFactor": 0.8699978535618684
      }
    },
    {
      "doubleSided": true,
      "name": "kaki",
      "pbrMetallicRoughness": {
        "baseColorFactor": [
          0.025394,
          0.0162107,
          0.0123503,
          1.0
        ],
        "metallicFactor": 0.0,
        "roughnessFactor": 0.9956192471302993
      }
    },
    {
      "doubleSided": true,
      "name": "kayu",
      "pbrMetallicRoughness": {
        "baseColorFactor": [
          0.119276,
          0.0719619,
          0.0562305,
          1.0
        ],
        "metallicFactor": 0.0,
        "roughnessFactor": 0.9801872849269997
      }
    }
  ],
  "meshes": [
    {
      "name": "Plane.001_paruh_0",
      "primitives": [
        {
          "attributes": {
            "NORMAL": 1,
            "POSITION": 0,
            "TEXCOORD_0": 2
          },
          "indices": 3,
          "material": 0,
          "mode": 4
        }
      ]
    },
    {
      "name": "Plane.001_Body_0",
      "primitives": [
        {
          "attributes": {
            "NORMAL": 5,
            "POSITION": 4,
            "TEXCOORD_0": 6
          },
          "indices": 7,
          "material": 1,
          "mode": 4
        }
      ]
    },
    {
      "name": "Plane.001_Body_1_0",
      "primitives": [
        {
          "attributes": {
            "NORMAL": 9,
            "POSITION": 8,
            "TEXCOORD_0": 10
          },
          "indices": 11,
          "material": 2,
          "mode": 4
        }
      ]
    },
    {
      "name": "Plane.001_kaki_0",
      "primitives": [
        {
          "attributes": {
            "NORMAL": 13,
            "POSITION": 12,
            "TEXCOORD_0": 14
          },
          "indices": 15,
          "material": 3,
          "mode": 4
        }
      ]
    },
    {
      "name": "Plane.002_Body_0",
      "primitives": [
        {
          "attributes": {
            "NORMAL": 17,
            "POSITION": 16,
            "TEXCOORD_0": 18
          },
          "indices": 19,
          "material": 1,
          "mode": 4
        }
      ]
    },
    {
      "name": "Circle_kayu_0",
      "primitives": [
        {
          "attributes": {
            "NORMAL": 21,
            "POSITION": 20,
            "TEXCOORD_0": 22
          },
          "indices": 23,
          "material": 4,
          "mode": 4
        }
      ]
    }
  ],
  "nodes": [
    {
      "children": [
        1
      ],
      "matrix": [
        1.0,
        0.0,
        0.0,
        0.0,
        0.0,
        2.220446049250313e-16,
        -1.0,
        0.0,
        0.0,
        1.0,
        2.220446049250313e-16,
        0.0,
        0.0,
        0.0,
        0.0,
        1.0
      ],
      "name": "Sketchfab_model"
    },
    {
      "children": [
        2
      ],
      "matrix": [
        0.009999999776482582,
        0.0,
        0.0,
        0.0,
        0.0,
        0.0,
        0.009999999776482582,
        0.0,
        0.0,
        -0.009999999776482582,
        0.0,
        0.0,
        0.0,
        0.0,
        0.0,
        1.0
      ],
      "name": "46b7ad2b648944a094e7e04127c35f68.fbx"
    },
    {
      "children": [
        3,
        8,
        10
      ],
      "name": "RootNode"
    },
    {
      "children": [
        4,
        5,
        6,
        7
      ],
      "matrix": [
        1.0,
        0.0,
        0.0,
        0.0,
        0.0,
        1.0,
        0.0,
        0.0,
        0.0,
        0.0,
        1.0,
        0.0,
        1.1669715215857634e-13,
        515.86181640625,
        -250.15174865722656,
        1.0
      ],
      "name": "Plane.001"
    },
    {
      "mesh": 0,
      "name": "Plane.001_paruh_0"
    },
    {
      "mesh": 1,
      "name": "Plane.001_Body_0"
    },
    {
      "mesh": 2,
      "name": "Plane.001_Body_1_0"
    },
    {
      "mesh": 3,
      "name": "Plane.001_kaki_0"
    },
    {
      "children": [
        9
      ],
      "matrix": [
        1.0,
        0.0,
        0.0,
        0.0,
        0.0,
        1.0,
        0.0,
        0.0,
        0.0,
        0.0,
        1.0,
        0.0,
        1.1669715215857634e-13,
        525.5572509765625,
        -233.98094177246094,
        1.0
      ],
      "name": "Plane.002"
    },
    {
      "mesh": 4,
      "name": "Plane.002_Body_0"
    },
    {
      "children": [
        11
      ],
      "matrix": [
        1.9470718881642313e-07,
        0.9999999999999811,
        6.939811267058884e-15,
        0.0,
        -0.999999999999972,
        1.9470718881642313e-07,
        -1.343588280633408e-07,
        0.0,
        -1.3435882806333962e-07,
        1.9220818461307363e-14,
        0.999999999999991,
        0.0,
        81.16590118408203,
        50.629730224609375,
        18.288143157958984,
        1.0
      ],
      "name": "Circle"
    },
    {
      "mesh": 5,
      "name": "Circle_kayu_0"
    }
  ],
  "scene": 0,
  "scenes": [
    {
      "name": "Sketchfab_Scene",
      "nodes": [
        0
      ]
    }
  ]
}
